<svg width="334" height="364" viewBox="0 0 334 364" fill="none" xmlns="http://www.w3.org/2000/svg">
<path d="M132.21 9.24425C153.559 -3.08141 179.861 -3.08142 201.21 9.24424L298.92 65.6571C320.268 77.9827 333.42 100.762 333.42 125.413V238.238C333.42 262.89 320.268 285.669 298.92 297.994L201.21 354.407C179.861 366.733 153.559 366.733 132.21 354.407L34.5 297.994C13.1513 285.669 0 262.89 0 238.238V125.413C0 100.762 13.1513 77.9827 34.5 65.6571L132.21 9.24425Z" fill="url(#paint0_linear_251_111)"/>
<path d="M38.6463 278.298L149.646 342.713C171.646 355.48 199.21 339.607 199.21 314.171V185.046C199.21 173.283 192.948 162.409 182.773 156.504L71.7735 92.0884C49.7735 79.3214 22.2099 95.1945 22.2099 120.631V249.756C22.2099 261.519 28.4719 272.393 38.6463 278.298Z" fill="white" fill-opacity="0.57"/>
<path d="M94.6463 243.298L205.646 307.713C227.646 320.48 255.21 304.607 255.21 279.171V150.046C255.21 138.283 248.948 127.409 238.773 121.504L127.773 57.0885C105.774 44.3214 78.2099 60.1945 78.2099 85.6305V214.756C78.2099 226.519 84.4719 237.393 94.6463 243.298Z" fill="white" fill-opacity="0.57"/>
<path d="M152.646 204.298L263.646 268.713C285.646 281.48 313.21 265.607 313.21 240.171V111.046C313.21 99.2826 306.948 88.4085 296.773 82.5041L185.773 18.0885C163.774 5.32143 136.21 21.1945 136.21 46.6305V175.756C136.21 187.519 142.472 198.393 152.646 204.298Z" fill="white" fill-opacity="0.57"/>
<path d="M255 263.844L205 234.844L152.436 203.952C142.262 198.077 136 187.257 136 175.551V62L238.564 121.569C248.738 127.444 255 138.264 255 149.969V263.844Z" fill="white" fill-opacity="0.57"/>
<path d="M255 263.844L205 234.844L152.436 203.952C142.262 198.077 136 187.257 136 175.551V62L238.564 121.569C248.738 127.444 255 138.264 255 149.969V263.844Z" fill="white" fill-opacity="0.57"/>
<path d="M199 304.016L94.5 243.344C86.5 239.344 78 228.344 78 214.875V95.8439L131.5 126.844L184.5 157.844C195.016 163.977 199 174.125 199 186.344V304.016Z" fill="white" fill-opacity="0.57"/>
<path d="M199 304.016L94.5 243.344C86.5 239.344 78 228.344 78 214.875V95.8439L131.5 126.844L184.5 157.844C195.016 163.977 199 174.125 199 186.344V304.016Z" fill="white" fill-opacity="0.57"/>
<defs>
<linearGradient id="paint0_linear_251_111" x1="197.021" y1="88.7876" x2="38.4346" y2="358.756" gradientUnits="userSpaceOnUse">
<stop stop-color="#8B99D6"/>
<stop offset="1" stop-color="#947DB0"/>
</linearGradient>
</defs>
</svg>
